<mxfile host="app.diagrams.net" agent="Mozilla/5.0 (Macintosh; Intel Mac OS X 10_15_7) AppleWebKit/537.36 (KHTML, like Gecko) Chrome/129.0.0.0 Safari/537.36" version="24.7.17">
  <diagram name="第 1 页" id="dnIFz0Vcb2_LDBf7YLh0">
    <mxGraphModel dx="1026" dy="739" grid="0" gridSize="10" guides="1" tooltips="1" connect="1" arrows="1" fold="1" page="1" pageScale="1" pageWidth="827" pageHeight="1169" math="0" shadow="0">
      <root>
        <mxCell id="0" />
        <mxCell id="1" parent="0" />
        <mxCell id="ZFWEkaHRuu0Bfs18QtBD-8" style="edgeStyle=orthogonalEdgeStyle;rounded=0;orthogonalLoop=1;jettySize=auto;html=1;exitX=0.5;exitY=1;exitDx=0;exitDy=0;entryX=0.5;entryY=0;entryDx=0;entryDy=0;" edge="1" parent="1" source="ZFWEkaHRuu0Bfs18QtBD-4" target="ZFWEkaHRuu0Bfs18QtBD-1">
          <mxGeometry relative="1" as="geometry" />
        </mxCell>
        <mxCell id="ZFWEkaHRuu0Bfs18QtBD-4" value="" style="rounded=0;whiteSpace=wrap;html=1;strokeColor=default;" vertex="1" parent="1">
          <mxGeometry x="160" y="90" width="500" height="180" as="geometry" />
        </mxCell>
        <mxCell id="ZFWEkaHRuu0Bfs18QtBD-1" value="&lt;font style=&quot;font-size: 18px;&quot;&gt;场景库&lt;/font&gt;" style="rounded=0;whiteSpace=wrap;html=1;fillColor=#fff2cc;strokeColor=#d6b656;" vertex="1" parent="1">
          <mxGeometry x="160" y="300" width="500" height="60" as="geometry" />
        </mxCell>
        <mxCell id="ZFWEkaHRuu0Bfs18QtBD-2" value="&lt;font style=&quot;font-size: 18px;&quot;&gt;高层场景梳理&lt;/font&gt;" style="rounded=0;whiteSpace=wrap;html=1;" vertex="1" parent="1">
          <mxGeometry x="240" y="110" width="340" height="30" as="geometry" />
        </mxCell>
        <mxCell id="ZFWEkaHRuu0Bfs18QtBD-9" style="edgeStyle=orthogonalEdgeStyle;rounded=0;orthogonalLoop=1;jettySize=auto;html=1;entryX=0.5;entryY=1;entryDx=0;entryDy=0;" edge="1" parent="1" source="ZFWEkaHRuu0Bfs18QtBD-5" target="ZFWEkaHRuu0Bfs18QtBD-1">
          <mxGeometry relative="1" as="geometry" />
        </mxCell>
        <mxCell id="ZFWEkaHRuu0Bfs18QtBD-5" value="" style="rounded=1;whiteSpace=wrap;html=1;dashed=1;dashPattern=12 12;" vertex="1" parent="1">
          <mxGeometry x="160" y="410" width="500" height="110" as="geometry" />
        </mxCell>
        <mxCell id="ZFWEkaHRuu0Bfs18QtBD-14" style="edgeStyle=orthogonalEdgeStyle;rounded=0;orthogonalLoop=1;jettySize=auto;html=1;exitX=0.5;exitY=0;exitDx=0;exitDy=0;entryX=0.5;entryY=1;entryDx=0;entryDy=0;" edge="1" parent="1" source="ZFWEkaHRuu0Bfs18QtBD-10" target="ZFWEkaHRuu0Bfs18QtBD-5">
          <mxGeometry relative="1" as="geometry" />
        </mxCell>
        <mxCell id="ZFWEkaHRuu0Bfs18QtBD-10" value="&lt;p style=&quot;margin: 0pt 0pt 0.0001pt; text-align: justify; font-family: Calibri; font-size: 10.5pt;&quot; class=&quot;MsoNormal&quot;&gt;&lt;br&gt;&lt;/p&gt;" style="rounded=0;whiteSpace=wrap;html=1;fillColor=#ffe6cc;strokeColor=#d79b00;" vertex="1" parent="1">
          <mxGeometry x="160" y="555" width="500" height="115" as="geometry" />
        </mxCell>
        <mxCell id="ZFWEkaHRuu0Bfs18QtBD-12" value="&lt;span style=&quot;font-size: 18px;&quot;&gt;静态代码分析&lt;/span&gt;" style="rounded=0;whiteSpace=wrap;html=1;fillColor=#f5f5f5;fontColor=#333333;strokeColor=#666666;" vertex="1" parent="1">
          <mxGeometry x="260" y="435" width="120" height="60" as="geometry" />
        </mxCell>
        <mxCell id="ZFWEkaHRuu0Bfs18QtBD-13" value="&lt;span style=&quot;font-size: 18px;&quot;&gt;动态代码分析&lt;/span&gt;" style="rounded=0;whiteSpace=wrap;html=1;fillColor=#f5f5f5;fontColor=#333333;strokeColor=#666666;" vertex="1" parent="1">
          <mxGeometry x="450" y="435" width="120" height="60" as="geometry" />
        </mxCell>
        <mxCell id="ZFWEkaHRuu0Bfs18QtBD-15" value="&lt;span style=&quot;font-size: 18px;&quot;&gt;层次化建模&lt;/span&gt;" style="rounded=0;whiteSpace=wrap;html=1;" vertex="1" parent="1">
          <mxGeometry x="180" y="100" width="35" height="150" as="geometry" />
        </mxCell>
        <mxCell id="ZFWEkaHRuu0Bfs18QtBD-16" value="&lt;span style=&quot;font-size: 18px;&quot;&gt;组件库&lt;/span&gt;" style="rounded=0;whiteSpace=wrap;html=1;" vertex="1" parent="1">
          <mxGeometry x="170" y="568" width="30" height="92" as="geometry" />
        </mxCell>
        <mxCell id="ZFWEkaHRuu0Bfs18QtBD-17" value="&lt;span style=&quot;font-size: 18px;&quot;&gt;数据接收&lt;/span&gt;" style="rounded=0;whiteSpace=wrap;html=1;" vertex="1" parent="1">
          <mxGeometry x="220" y="570" width="130" height="30" as="geometry" />
        </mxCell>
        <mxCell id="ZFWEkaHRuu0Bfs18QtBD-18" value="&lt;span style=&quot;font-size: 18px;&quot;&gt;状态类组件&lt;/span&gt;" style="rounded=0;whiteSpace=wrap;html=1;" vertex="1" parent="1">
          <mxGeometry x="220" y="620" width="100" height="30" as="geometry" />
        </mxCell>
        <mxCell id="ZFWEkaHRuu0Bfs18QtBD-19" value="&lt;span style=&quot;font-size: 18px;&quot;&gt;数据存储&lt;/span&gt;" style="rounded=0;whiteSpace=wrap;html=1;" vertex="1" parent="1">
          <mxGeometry x="370" y="570" width="130" height="30" as="geometry" />
        </mxCell>
        <mxCell id="ZFWEkaHRuu0Bfs18QtBD-20" value="&lt;span style=&quot;font-size: 18px;&quot;&gt;数据回放&lt;/span&gt;" style="rounded=0;whiteSpace=wrap;html=1;" vertex="1" parent="1">
          <mxGeometry x="520" y="570" width="130" height="30" as="geometry" />
        </mxCell>
        <mxCell id="ZFWEkaHRuu0Bfs18QtBD-21" value="&lt;span style=&quot;font-size: 18px;&quot;&gt;仪表类组件&lt;/span&gt;" style="rounded=0;whiteSpace=wrap;html=1;" vertex="1" parent="1">
          <mxGeometry x="340" y="620" width="100" height="30" as="geometry" />
        </mxCell>
        <mxCell id="ZFWEkaHRuu0Bfs18QtBD-23" value="&lt;span style=&quot;font-size: 18px;&quot;&gt;地理信息&lt;/span&gt;" style="rounded=0;whiteSpace=wrap;html=1;" vertex="1" parent="1">
          <mxGeometry x="460" y="620" width="100" height="30" as="geometry" />
        </mxCell>
        <mxCell id="ZFWEkaHRuu0Bfs18QtBD-24" value="&lt;font style=&quot;font-size: 18px;&quot;&gt;&lt;b style=&quot;&quot;&gt;……&lt;/b&gt;&lt;/font&gt;" style="rounded=0;whiteSpace=wrap;html=1;fillColor=none;strokeColor=none;" vertex="1" parent="1">
          <mxGeometry x="540" y="600" width="120" height="60" as="geometry" />
        </mxCell>
        <mxCell id="ZFWEkaHRuu0Bfs18QtBD-27" value="&lt;span style=&quot;font-size: 18px;&quot;&gt;具体任务流程分解&lt;/span&gt;" style="rounded=0;whiteSpace=wrap;html=1;" vertex="1" parent="1">
          <mxGeometry x="240" y="140" width="340" height="30" as="geometry" />
        </mxCell>
        <mxCell id="ZFWEkaHRuu0Bfs18QtBD-28" value="&lt;span style=&quot;font-size: 18px;&quot;&gt;场景映射&lt;/span&gt;" style="rounded=0;whiteSpace=wrap;html=1;" vertex="1" parent="1">
          <mxGeometry x="240" y="170" width="340" height="30" as="geometry" />
        </mxCell>
        <mxCell id="ZFWEkaHRuu0Bfs18QtBD-29" value="&lt;span style=&quot;font-size: 18px;&quot;&gt;场景验证&lt;/span&gt;" style="rounded=0;whiteSpace=wrap;html=1;" vertex="1" parent="1">
          <mxGeometry x="240" y="200" width="340" height="30" as="geometry" />
        </mxCell>
      </root>
    </mxGraphModel>
  </diagram>
</mxfile>
